<svg xmlns="http://www.w3.org/2000/svg" viewBox="0 0 180 118" role="img" aria-label="Shrimp mark">
  <defs>
    <linearGradient id="shrimpBody" x1="20" y1="88" x2="130" y2="22" gradientUnits="userSpaceOnUse">
      <stop offset="0" stop-color="#ef432f"/>
      <stop offset="0.55" stop-color="#ff714d"/>
      <stop offset="1" stop-color="#ffa45f"/>
    </linearGradient>
    <filter id="softShadow" x="-18%" y="-24%" width="150%" height="165%">
      <feDropShadow dx="0" dy="4" stdDeviation="4" flood-color="#032936" flood-opacity="0.28"/>
    </filter>
  </defs>
  <g filter="url(#softShadow)" fill="none" stroke-linecap="round" stroke-linejoin="round">
    <path d="M26 67c11-31 43-52 77-48 30 4 51 23 49 45-2 24-29 39-61 31-22-6-42-15-65-28Z" fill="url(#shrimpBody)"/>
    <path d="M29 67 8 54l18-14 25 17-12 23-26 7 16-20Z" fill="#f04e33"/>
    <path d="M50 31c15-7 33-9 54-4" stroke="#ff9b62" stroke-width="4" opacity="0.55"/>
    <path d="M130 43c15-12 31-16 45-10M132 54c17-3 30 2 40 14M119 34c13-18 29-27 47-29" stroke="#ffa45f" stroke-width="5"/>
    <path d="M122 89c10 3 18 10 24 20M101 93c5 7 7 14 6 21M78 86c-1 9-6 17-14 24M56 76c-7 10-16 17-28 21" stroke="#ff7d55" stroke-width="5"/>
    <path d="M119 34c8-4 18-2 25 5" stroke="#173642" stroke-width="4"/>
    <circle cx="124" cy="37" r="4.5" fill="#173642"/>
    <path d="M101 24c12-11 26-17 42-18" stroke="#ffa45f" stroke-width="5"/>
  </g>
</svg>
